# 3ds Max Wavefront OBJ Exporter v0.97b - (c)2007 guruware
# File Created: 30.01.2016 02:20:34

mtllib Rock1.mtl

#
# object Box005
#

v  354.7269 145.8771 177.2724
v  356.4380 143.8395 167.2840
v  342.7391 153.2599 158.6516
v  342.7171 153.1387 174.6724
v  265.3117 5.0629 226.1350
v  313.2092 5.0629 222.9879
v  313.4243 17.9812 212.2085
v  275.5480 22.5735 216.7498
v  407.3976 2.0991 148.0237
v  402.6893 26.2672 140.7919
v  365.3091 24.5010 205.6858
v  385.7850 2.0991 223.8094
v  314.7093 2.0991 62.1684
v  292.2702 2.0991 70.6856
v  303.0044 21.3216 81.7332
v  318.1674 20.9372 74.0975
v  256.3770 2.0991 117.7061
v  277.2415 43.9509 125.6031
v  296.1988 25.5167 103.1135
v  268.1870 2.0991 89.1161
v  350.1328 13.5530 97.7897
v  324.9624 21.4394 97.5629
v  328.1905 39.9758 118.5310
v  354.5266 2.0991 89.1161
v  237.9110 2.0931 168.3887
v  258.2521 25.1019 172.8841
v  245.5959 23.6870 135.8008
v  228.3953 2.1009 133.6857
v  290.8589 33.2715 215.1599
v  352.6724 54.1986 202.4131
v  304.7863 53.5482 195.1273
v  371.1503 53.7132 147.5625
v  323.8649 52.3926 128.1640
v  291.5791 51.7964 132.7904
v  331.3672 15.6798 81.3186
v  340.5994 2.0991 67.6037
v  255.3768 14.4039 202.6507
v  235.0357 5.0569 208.0861
v  353.8905 84.6466 193.8392
v  321.8585 88.1342 197.7836
v  372.5001 80.7322 155.7783
v  332.4206 83.2424 140.7737
v  302.8373 70.2772 142.5142
v  268.1870 2.0991 186.4377
v  320.1358 94.0196 143.5080
v  306.3111 90.4157 150.7897
v  310.3970 105.1224 163.7882
v  322.3992 107.9546 150.2543
v  360.0305 107.9388 187.6845
v  335.1412 111.4437 182.9211
v  365.9799 101.2392 160.0195
v  341.6757 109.1607 151.7088
v  328.7026 136.8916 155.3666
v  324.6970 138.6903 175.5247
v  357.9532 120.6016 181.7274
v  342.3940 120.3408 179.1274
v  359.6643 118.5640 171.7390
v  342.4159 120.4620 163.1066
v  324.5480 122.9853 150.5048
v  313.9348 121.1827 159.3332
# 60 vertices

vn 0.5587 0.8288 -0.0311
vn 0.5920 0.8035 -0.0625
vn 0.5481 0.8361 -0.0214
vn 0.5163 0.8564 0.0072
vn 0.1250 0.4740 0.8716
vn 0.0504 0.6394 0.7672
vn 0.0781 0.5818 0.8095
vn 0.1564 0.3940 0.9057
vn 0.9586 0.2838 -0.0248
vn 0.9610 0.1861 -0.2045
vn 0.6972 0.6728 0.2475
vn 0.6466 0.7402 0.1844
vn -0.0197 0.6256 -0.7799
vn -0.2859 0.5925 -0.7531
vn -0.3253 0.5699 -0.7546
vn 0.1024 0.5187 -0.8488
vn -0.5682 0.6603 -0.4910
vn -0.5132 0.3992 -0.7598
vn -0.5582 0.5786 -0.5947
vn -0.5544 0.8001 -0.2290
vn 0.2865 0.7274 -0.6235
vn 0.1129 0.7357 -0.6678
vn 0.1368 0.7487 -0.6486
vn 0.3149 0.7339 -0.6018
vn 0.4948 0.5133 -0.7012
vn 0.3833 0.6465 -0.6596
vn -0.7601 0.6097 0.2248
vn -0.7508 0.6183 0.2326
vn -0.7643 0.6058 0.2212
vn -0.7743 0.5961 0.2124
vn 0.0442 0.4213 0.9058
vn 0.7498 0.5579 0.3557
vn 0.3145 0.5892 -0.7442
vn -0.6589 0.7351 0.1596
vn -0.5013 0.7292 -0.4658
vn 0.3507 0.9176 -0.1871
vn 0.5598 0.7005 -0.4426
vn 0.0696 0.9922 -0.1039
vn -0.0274 0.7569 -0.6529
vn -0.0308 0.7601 -0.6490
vn -0.0783 0.6594 -0.7477
vn 0.3408 0.6012 -0.7228
vn 0.1363 0.7483 -0.6492
vn -0.4324 0.7600 0.4852
vn -0.4652 0.8706 0.1602
vn -0.4799 0.4103 -0.7755
vn -0.0380 0.1011 0.9941
vn 0.9274 -0.0391 0.3720
vn 0.3567 0.2617 -0.8968
vn -0.1913 0.4676 -0.8630
vn -0.0224 -0.9939 0.1081
vn 0.0170 0.6390 0.7690
vn 0.1226 -0.0107 0.9924
vn -0.5222 0.8145 0.2529
vn -0.6216 0.7826 0.0357
vn -0.0423 -0.9966 0.0713
vn -0.6061 0.5381 -0.5857
vn 0.0358 0.3984 0.9165
vn 0.9377 0.0233 0.3466
vn 0.3662 0.2696 -0.8906
vn -0.6845 0.7207 -0.1096
vn -0.1276 0.4340 0.8919
vn 0.9602 0.2420 0.1392
vn 0.4176 0.6187 -0.6655
vn -0.2869 0.2478 -0.9254
vn -0.9268 0.3039 0.2208
vn -0.7977 0.3871 0.4624
vn -0.7227 0.5874 -0.3644
vn 0.0795 0.3850 -0.9195
vn -0.8790 0.4440 0.1738
vn -0.1483 0.1427 0.9786
vn 0.9792 0.1492 0.1373
vn 0.4522 -0.1131 -0.8847
vn 0.5869 0.1121 -0.8019
vn 0.1766 0.1338 -0.9752
vn -0.7062 0.0335 -0.7072
vn -0.7270 0.0709 0.6829
vn 0.0013 0.1938 0.9810
# 78 vertex normals

vt 1.0000 0.0000 0.0000
vt 1.0000 0.5460 0.0000
vt 0.5756 0.5460 0.0000
vt 0.0000 0.0000 0.0000
vt 1.0000 1.0000 0.0000
vt 0.0000 1.0000 0.0000
vt 0.5460 0.0000 0.0000
vt 0.5460 1.0000 0.0000
vt 0.5063 0.0000 0.0000
vt 0.5688 1.0000 0.0000
vt 0.4540 0.0000 0.0000
vt 0.4540 1.0000 0.0000
vt 0.5543 1.0000 0.0000
vt 0.6178 0.5460 0.0000
vt 0.0000 0.5460 0.0000
vt 0.4457 1.0000 0.0000
# 16 texture coords

g Box005
usemtl wire_088088225
s 4
f 1/1/1 2/2/2 3/3/3 4/4/4 
s 8
f 5/4/5 6/1/6 7/5/7 8/6/8 
s 16
f 9/7/9 10/8/10 11/6/11 12/4/12 
s 32
f 13/9/13 14/1/14 15/5/15 16/10/16 
s 64
f 17/11/17 18/12/18 19/6/19 20/4/20 
s 4
f 21/5/21 22/13/22 23/14/23 10/2/24 
s 16
f 24/1/25 21/5/26 10/8/10 9/7/9 
s 64
f 25/1/27 26/5/28 27/12/29 28/11/30 
s off
f 29/4/31 11/1/31 30/1/31 31/4/31 
f 11/1/32 10/2/32 32/2/32 30/1/32 
f 10/2/33 23/14/33 33/3/33 32/2/33 
f 18/15/34 29/4/34 31/4/34 34/15/34 
f 20/1/35 19/5/35 15/5/35 14/1/35 
f 22/16/36 21/6/36 35/6/36 16/10/36 
f 21/6/37 24/4/37 36/4/37 35/6/37 
f 15/5/38 19/5/38 22/16/38 16/10/38 
s 4
f 19/6/39 18/15/40 23/14/23 22/13/22 
s off
f 23/14/41 18/15/41 34/15/41 33/3/41 
s 32
f 35/6/42 36/4/43 13/9/13 16/10/16 
s off
f 5/1/44 8/5/44 37/5/44 38/1/44 
f 29/5/45 18/12/45 27/12/45 26/5/45 
f 18/12/46 17/11/46 28/11/46 27/12/46 
f 31/4/47 30/1/47 39/1/47 40/4/47 
f 30/1/48 32/2/48 41/2/48 39/1/48 
f 32/2/49 33/3/49 42/3/49 41/2/49 
f 33/3/50 34/15/50 43/15/50 42/3/50 
f 44/4/51 12/1/51 6/1/51 5/4/51 
f 12/1/52 11/5/52 7/5/52 6/1/52 
f 11/5/53 29/6/53 8/6/53 7/5/53 
f 29/5/54 26/5/54 37/5/54 8/5/54 
f 26/5/55 25/1/55 38/1/55 37/5/55 
f 25/1/56 44/1/56 5/1/56 38/1/56 
f 45/3/57 46/15/57 47/4/57 48/3/57 
f 40/4/58 39/1/58 49/1/58 50/4/58 
f 39/1/59 41/2/59 51/2/59 49/1/59 
f 41/2/60 42/3/60 52/3/60 51/2/60 
f 53/3/61 54/4/61 4/4/61 3/3/61 
f 50/4/62 49/1/62 55/1/62 56/4/62 
f 49/1/63 51/2/63 57/2/63 55/1/63 
f 51/2/64 52/3/64 58/3/64 57/2/64 
f 42/3/65 43/15/65 46/15/65 45/3/65 
f 31/4/66 40/4/66 46/15/66 43/15/66 
f 40/4/67 50/4/67 47/4/67 46/15/67 
f 54/4/68 53/3/68 59/3/68 60/4/68 
f 48/3/69 52/3/69 42/3/69 45/3/69 
f 43/15/70 34/15/70 31/4/70 
f 56/4/71 55/1/71 1/1/71 4/4/71 
f 55/1/72 57/2/72 2/2/72 1/1/72 
f 57/2/73 58/3/73 3/3/73 2/2/73 
f 58/3/74 52/3/74 53/3/74 3/3/74 
f 52/3/75 48/3/75 59/3/75 53/3/75 
f 48/3/76 47/4/76 60/4/76 59/3/76 
f 47/4/77 50/4/77 54/4/77 60/4/77 
f 50/4/78 56/4/78 4/4/78 54/4/78 
# 53 polygons - 1 triangles

