# 3ds Max Wavefront OBJ Exporter v0.97b - (c)2007 guruware
# File Created: 30.01.2016 02:21:26

mtllib Rock5.mtl

#
# object Box004
#

v  48.9218 40.1748 161.9362
v  75.4578 45.4287 161.3863
v  73.7736 51.0323 148.3265
v  47.3640 47.0675 148.1520
v  85.3770 35.1233 128.2939
v  89.1940 26.0868 109.2664
v  62.8079 31.6683 106.3222
v  38.4239 28.9046 132.1055
v  41.3278 -0.9730 181.8108
v  69.3964 -0.9730 181.8108
v  69.3964 13.5194 181.8108
v  50.7723 13.5194 181.8108
v  87.0611 -0.9730 147.5490
v  87.0611 25.3182 159.0135
v  102.4086 12.7570 126.0611
v  97.7172 -0.9730 101.2805
v  76.9717 -0.9730 82.1197
v  59.2450 -1.0571 81.4872
v  66.8718 22.8170 98.6144
v  81.4624 20.2498 96.9080
v  13.3779 -0.9732 102.0365
v  5.8890 -0.9732 118.0603
v  13.2707 10.5704 116.2262
v  24.2738 12.6556 103.5637
v  16.5170 -0.9730 123.0817
v  16.5170 -0.9730 147.5490
v  39.9817 26.1185 163.9875
v  37.9607 -0.9732 87.9426
v  34.5316 10.9387 91.9919
v  108.7114 -0.9730 123.0817
v  104.4884 -0.9730 141.0372
v  66.4147 39.3420 126.5847
v  50.1981 37.1833 128.4939
v  51.0733 44.0726 134.2387
v  60.6030 47.6823 134.3261
# 35 vertices

vn -0.1459 0.8859 0.4403
vn -0.1693 0.8976 0.4070
vn -0.1582 0.8922 0.4230
vn -0.1351 0.8800 0.4553
vn 0.0675 0.9727 -0.2222
vn 0.2002 0.8622 -0.4653
vn 0.0687 0.9372 -0.3419
vn -0.1328 0.9910 -0.0194
vn 0.0000 0.0000 1.0000
vn 0.7086 0.3576 0.6084
vn 0.8738 0.4613 0.1540
vn 0.9986 0.0210 -0.0481
vn 0.7933 0.4815 -0.3727
vn 0.8626 0.5056 0.0183
vn 0.7500 0.3903 -0.5341
vn 0.0201 0.5754 -0.8176
vn 0.0264 0.5771 -0.8162
vn 0.0125 0.5733 -0.8192
vn 0.0045 0.5711 -0.8209
vn -0.6386 0.5089 -0.5772
vn -0.8064 0.4558 -0.3769
vn -0.7406 0.5185 -0.4274
vn -0.5930 0.4427 -0.6725
vn -0.7854 0.6176 0.0415
vn -0.7559 0.6547 -0.0000
vn -0.7962 0.6023 0.0578
vn -0.8159 0.5711 0.0898
vn 0.8545 -0.1406 0.5000
vn 0.0498 0.8525 0.5204
vn -0.7324 0.3484 0.5849
vn -0.5880 0.2843 0.7572
vn -0.4230 0.8615 -0.2807
vn -0.1108 0.5157 -0.8496
vn 0.8900 0.4369 -0.1306
vn 0.6422 0.4875 0.5915
vn 0.6367 0.3456 -0.6893
vn 0.6634 0.3746 -0.6478
vn 0.0984 0.8747 -0.4747
vn 0.1880 0.7566 -0.6263
vn -0.2508 0.7582 -0.6019
vn -0.7475 0.0106 -0.6642
vn -0.6083 0.2518 -0.7527
vn 0.0750 -0.0035 0.9972
vn 0.8647 0.4910 0.1063
vn -0.1919 0.6150 -0.7648
vn -0.8907 0.4285 0.1516
vn -0.0289 -0.4056 -0.9136
vn -0.6723 0.6180 -0.4076
vn -0.2028 0.9675 -0.1512
vn 0.2790 0.8032 -0.5263
# 50 vertex normals

vt 0.0000 0.0000 0.0000
vt 1.0000 0.0000 0.0000
vt 1.0000 0.5000 0.0000
vt 0.0000 0.5000 0.0000
vt 1.0000 0.7999 0.0000
vt 0.0000 0.7408 0.0000
vt 1.0000 1.0000 0.0000
vt 0.0000 1.0000 0.0000
vt 0.5000 1.0000 0.0000
vt 0.7999 1.0000 0.0000
vt 0.5000 0.5716 0.0000
vt 0.8386 0.0000 0.0000
vt 0.2608 0.0000 0.0000
vt 0.5000 0.0000 0.0000
vt 0.2412 1.0000 0.0000
vt 0.2592 1.0000 0.0000
vt 0.2462 0.0000 0.0000
# 17 texture coords

g Box004
usemtl wire_006135113
s 4
f 1/1/1 2/2/2 3/3/3 4/4/4 
f 5/3/5 6/5/6 7/6/7 8/4/8 
s 8
f 9/1/9 10/2/9 11/7/9 12/8/9 
s 16
f 13/1/10 5/9/11 14/8/12 
f 6/10/13 5/9/11 15/11/14 16/12/15 
s 32
f 17/1/16 18/2/17 19/7/18 20/8/19 
s 64
f 21/13/20 22/14/21 23/9/22 24/15/23 
f 25/14/24 26/2/25 27/7/26 8/9/27 
s off
f 13/2/28 14/7/28 11/7/28 10/2/28 
f 14/7/29 27/8/29 12/8/29 11/7/29 
f 27/8/30 26/1/30 9/1/30 12/8/30 
f 25/14/31 8/9/31 23/9/31 22/14/31 
f 8/9/32 7/16/32 24/15/32 23/9/32 
f 19/8/33 18/1/33 28/1/33 29/8/33 
s 16
f 30/14/34 16/12/15 15/11/14 31/17/35 
f 16/12/15 17/2/36 20/7/37 6/10/13 
s 4
f 6/5/6 20/7/38 19/8/39 7/6/7 
s off
f 7/16/40 19/8/40 29/8/40 24/15/40 
s 64
f 24/15/23 29/8/41 28/1/42 21/13/20 
s off
f 27/1/43 14/2/43 2/2/43 1/1/43 
f 14/2/44 5/3/44 3/3/44 2/2/44 
f 32/3/45 33/4/45 34/4/45 35/3/45 
f 8/4/46 27/1/46 1/1/46 4/4/46 
s 16
f 31/17/35 15/11/14 5/9/11 13/1/10 
s off
f 5/3/47 8/4/47 33/4/47 32/3/47 
f 8/4/48 4/4/48 34/4/48 33/4/48 
f 4/4/49 3/3/49 35/3/49 34/4/49 
f 3/3/50 5/3/50 32/3/50 35/3/50 
# 27 polygons - 1 triangles

